<?xml version="1.0" encoding="UTF-8"?>
<svg xmlns="http://www.w3.org/2000/svg" xmlns:xlink="http://www.w3.org/1999/xlink" viewBox="0 0 335.65 210.71">
  <defs>
    <style>
      .cls-1 {
        fill: url(#linear-gradient-31);
      }

      .cls-1, .cls-2, .cls-3, .cls-4, .cls-5, .cls-6, .cls-7, .cls-8, .cls-9, .cls-10, .cls-11, .cls-12, .cls-13, .cls-14, .cls-15, .cls-16, .cls-17, .cls-18, .cls-19, .cls-20, .cls-21, .cls-22, .cls-23, .cls-24, .cls-25, .cls-26, .cls-27, .cls-28, .Graphic_Style_4, .cls-29, .cls-30, .cls-31, .cls-32, .cls-33, .cls-34, .cls-35, .cls-36, .cls-37, .cls-38, .cls-39, .cls-40, .cls-41, .cls-42, .cls-43, .cls-44, .cls-45, .cls-46, .cls-47, .cls-48, .cls-49, .cls-50, .cls-51, .cls-52, .cls-53, .cls-54, .cls-55, .cls-56, .cls-57, .cls-58, .cls-59, .cls-60, .cls-61, .cls-62, .cls-63, .cls-64, .cls-65, .cls-66, .cls-67, .cls-68, .cls-69, .cls-70, .cls-71, .cls-72, .cls-73, .cls-74, .cls-75, .cls-76, .cls-77, .cls-78 {
        stroke-width: 0px;
      }

      .cls-1, .cls-2, .cls-9, .cls-13, .cls-14, .cls-15, .cls-17, .cls-19, .cls-25, .cls-28, .cls-42, .cls-46, .cls-75, .cls-77 {
        mix-blend-mode: screen;
      }

      .cls-2 {
        fill: url(#linear-gradient-60);
      }

      .cls-3 {
        fill: url(#linear-gradient-38);
      }

      .cls-4 {
        fill: url(#linear-gradient-12);
      }

      .cls-5 {
        fill: url(#linear-gradient-17);
      }

      .cls-6 {
        fill: url(#linear-gradient-19);
      }

      .cls-7 {
        fill: url(#linear-gradient);
      }

      .cls-8 {
        fill: url(#linear-gradient-57);
      }

      .cls-9 {
        fill: url(#linear-gradient-25);
      }

      .cls-10 {
        fill: url(#linear-gradient-16);
      }

      .cls-10, .cls-21, .cls-23, .cls-26, .cls-35, .cls-69, .cls-71, .cls-72, .cls-79 {
        mix-blend-mode: multiply;
      }

      .cls-11 {
        fill: url(#linear-gradient-21);
      }

      .cls-12 {
        fill: url(#linear-gradient-6);
      }

      .cls-13 {
        fill: url(#Radial_Gradient_1-5);
      }

      .cls-14 {
        fill: url(#Radial_Gradient_1-3);
      }

      .cls-80 {
        isolation: isolate;
      }

      .cls-15 {
        fill: url(#Radial_Gradient_1-6);
      }

      .cls-16 {
        fill: url(#linear-gradient-42);
      }

      .cls-17 {
        fill: url(#linear-gradient-33);
      }

      .cls-19 {
        fill: url(#Radial_Gradient_1);
      }

      .cls-20 {
        fill: url(#linear-gradient-15);
      }

      .cls-21 {
        fill: url(#linear-gradient-14);
      }

      .cls-22 {
        fill: url(#linear-gradient-11);
      }

      .cls-23 {
        fill: url(#linear-gradient-59);
      }

      .cls-24 {
        fill: url(#linear-gradient-5);
      }

      .cls-25 {
        fill: url(#Radial_Gradient_1-2);
      }

      .cls-26 {
        fill: url(#linear-gradient-29);
      }

      .cls-27 {
        fill: url(#linear-gradient-58);
      }

      .cls-28 {
        fill: url(#Radial_Gradient_1-4);
      }

      .Graphic_Style_4 {
        fill: url(#New_Gradient_Swatch_2);
      }

      .cls-29 {
        opacity: .2;
      }

      .cls-30 {
        fill: url(#linear-gradient-41);
      }

      .cls-31 {
        fill: url(#linear-gradient-40);
      }

      .cls-32 {
        fill: url(#linear-gradient-13);
      }

      .cls-33 {
        fill: url(#linear-gradient-23);
      }

      .cls-34 {
        fill: url(#linear-gradient-43);
      }

      .cls-35 {
        fill: url(#linear-gradient-30);
      }

      .cls-36 {
        fill: url(#linear-gradient-22);
      }

      .cls-37 {
        fill: url(#linear-gradient-54);
      }

      .cls-38 {
        fill: url(#linear-gradient-55);
      }

      .cls-39 {
        fill: url(#linear-gradient-35);
      }

      .cls-40 {
        fill: url(#linear-gradient-50);
      }

      .cls-41 {
        fill: url(#linear-gradient-32);
      }

      .cls-42 {
        fill: url(#Radial_Gradient_1-7);
      }

      .cls-43 {
        fill: url(#linear-gradient-20);
      }

      .cls-44 {
        fill: url(#linear-gradient-2);
      }

      .cls-45 {
        fill: url(#linear-gradient-52);
      }

      .cls-46 {
        fill: url(#linear-gradient-61);
      }

      .cls-47 {
        fill: url(#linear-gradient-45);
      }

      .cls-48 {
        fill: url(#radial-gradient-2);
      }

      .cls-49 {
        fill: url(#linear-gradient-39);
      }

      .cls-50 {
        fill: url(#radial-gradient-5);
      }

      .cls-51 {
        fill: url(#linear-gradient-9);
      }

      .cls-52 {
        fill: url(#linear-gradient-27);
      }

      .cls-53 {
        fill: url(#radial-gradient);
      }

      .cls-54 {
        fill: url(#linear-gradient-53);
      }

      .cls-55 {
        fill: #7a5608;
      }

      .cls-56 {
        fill: url(#linear-gradient-36);
      }

      .cls-57 {
        fill: url(#linear-gradient-48);
      }

      .cls-58 {
        fill: url(#linear-gradient-49);
      }

      .cls-59 {
        fill: url(#linear-gradient-8);
      }

      .cls-60 {
        fill: url(#linear-gradient-47);
      }

      .cls-61 {
        fill: url(#linear-gradient-24);
      }

      .cls-62 {
        fill: url(#linear-gradient-26);
      }

      .cls-63 {
        fill: url(#linear-gradient-18);
      }

      .cls-64 {
        fill: url(#linear-gradient-51);
      }

      .cls-65 {
        fill: url(#New_Gradient_Swatch_copy_5);
      }

      .cls-66 {
        fill: url(#linear-gradient-44);
      }

      .cls-67 {
        fill: url(#linear-gradient-28);
      }

      .cls-68 {
        fill: url(#linear-gradient-56);
      }

      .cls-69 {
        fill: url(#linear-gradient-3);
      }

      .cls-70 {
        fill: url(#linear-gradient-10);
      }

      .cls-71 {
        fill: url(#linear-gradient-7);
      }

      .cls-72 {
        fill: #e6e7e8;
      }

      .cls-73 {
        fill: url(#radial-gradient-3);
      }

      .cls-74 {
        fill: url(#linear-gradient-4);
      }

      .cls-75 {
        fill: url(#linear-gradient-46);
      }

      .cls-76 {
        fill: url(#linear-gradient-37);
      }

      .cls-77 {
        fill: url(#linear-gradient-34);
      }

      .cls-78 {
        fill: url(#radial-gradient-4);
      }
    </style>
    <radialGradient id="New_Gradient_Swatch_2" data-name="New Gradient Swatch 2" cx="152.68" cy="58.5" fx="152.68" fy="58.5" r="201.41" gradientUnits="userSpaceOnUse">
      <stop offset=".01" stop-color="#fee859"/>
      <stop offset=".15" stop-color="#fed640"/>
      <stop offset=".44" stop-color="#feb611"/>
      <stop offset=".58" stop-color="#fa0"/>
      <stop offset=".73" stop-color="#fba700"/>
      <stop offset=".88" stop-color="#ef9e00"/>
      <stop offset="1" stop-color="#df9300"/>
    </radialGradient>
    <linearGradient id="linear-gradient" x1="179.36" y1="171.2" x2="158.11" y2="142.73" gradientUnits="userSpaceOnUse">
      <stop offset=".04" stop-color="#1e1f21"/>
      <stop offset=".24" stop-color="#101011"/>
      <stop offset=".27" stop-color="#0e0e0f"/>
      <stop offset=".35" stop-color="#131314"/>
      <stop offset=".45" stop-color="#222325"/>
      <stop offset=".56" stop-color="#3b3d41"/>
      <stop offset=".69" stop-color="#5d6066"/>
      <stop offset="1" stop-color="#37383c"/>
    </linearGradient>
    <linearGradient id="linear-gradient-2" x1="150.92" y1="160.7" x2="175.15" y2="160.7" gradientUnits="userSpaceOnUse">
      <stop offset=".04" stop-color="#1e1f21"/>
      <stop offset=".31" stop-color="#2c2d30"/>
      <stop offset=".84" stop-color="#505358"/>
      <stop offset="1" stop-color="#5d6066"/>
    </linearGradient>
    <radialGradient id="Radial_Gradient_1" data-name="Radial Gradient 1" cx="165.53" cy="160.29" fx="165.53" fy="160.29" r="13.08" gradientUnits="userSpaceOnUse">
      <stop offset="0" stop-color="#fff"/>
      <stop offset="1" stop-color="#000"/>
    </radialGradient>
    <linearGradient id="linear-gradient-3" x1="154.11" y1="160.9" x2="172.77" y2="160.9" gradientUnits="userSpaceOnUse">
      <stop offset="0" stop-color="#bcbec0"/>
      <stop offset="1" stop-color="#e6e7e8"/>
    </linearGradient>
    <linearGradient id="linear-gradient-4" x1="153.53" y1="161.13" x2="172.18" y2="161.13" xlink:href="#linear-gradient-3"/>
    <linearGradient id="linear-gradient-5" x1="77.61" y1="114.04" x2="56.35" y2="85.56" xlink:href="#linear-gradient"/>
    <linearGradient id="linear-gradient-6" x1="49.17" y1="103.53" x2="73.39" y2="103.53" xlink:href="#linear-gradient-2"/>
    <radialGradient id="Radial_Gradient_1-2" data-name="Radial Gradient 1" cx="63.78" cy="103.12" fx="63.78" fy="103.12" r="13.08" xlink:href="#Radial_Gradient_1"/>
    <linearGradient id="linear-gradient-7" x1="52.36" y1="103.73" x2="71.01" y2="103.73" xlink:href="#linear-gradient-3"/>
    <linearGradient id="linear-gradient-8" x1="51.78" y1="103.97" x2="70.43" y2="103.97" xlink:href="#linear-gradient-3"/>
    <radialGradient id="radial-gradient" cx="201.23" cy="73.87" fx="201.23" fy="73.87" r="10.85" gradientUnits="userSpaceOnUse">
      <stop offset=".01" stop-color="#fee859"/>
      <stop offset=".15" stop-color="#fed640"/>
      <stop offset=".44" stop-color="#feb611"/>
      <stop offset=".58" stop-color="#fa0"/>
      <stop offset=".73" stop-color="#fba700"/>
      <stop offset=".88" stop-color="#ef9e00"/>
      <stop offset="1" stop-color="#df9300"/>
    </radialGradient>
    <radialGradient id="Radial_Gradient_1-3" data-name="Radial Gradient 1" cx="120.58" cy="113.45" fx="120.58" fy="113.45" r="68.45" xlink:href="#Radial_Gradient_1"/>
    <linearGradient id="linear-gradient-9" x1="61.21" y1="41.27" x2="118.77" y2="41.27" xlink:href="#linear-gradient-2"/>
    <linearGradient id="linear-gradient-10" x1="145.19" y1="130.24" x2="217.14" y2="37.24" xlink:href="#linear-gradient-2"/>
    <linearGradient id="linear-gradient-11" x1="62.47" y1="88.97" x2="144.67" y2="88.97" xlink:href="#linear-gradient-2"/>
    <linearGradient id="linear-gradient-12" x1="223.49" y1="140.92" x2="239.24" y2="150.21" xlink:href="#linear-gradient-2"/>
    <radialGradient id="Radial_Gradient_1-4" data-name="Radial Gradient 1" cx="229.65" cy="144.57" fx="229.65" fy="144.57" r="15.97" xlink:href="#Radial_Gradient_1"/>
    <linearGradient id="linear-gradient-13" x1="198.55" y1="151.57" x2="197.37" y2="162.01" xlink:href="#linear-gradient-3"/>
    <linearGradient id="linear-gradient-14" x1="198.23" y1="159.9" x2="198.01" y2="143.75" gradientUnits="userSpaceOnUse">
      <stop offset="0" stop-color="#9c9c9c"/>
      <stop offset="0" stop-color="#9c9c9c"/>
      <stop offset=".31" stop-color="#c7c7c7"/>
      <stop offset=".59" stop-color="#e5e5e5"/>
      <stop offset=".83" stop-color="#f8f8f8"/>
      <stop offset="1" stop-color="#fff"/>
    </linearGradient>
    <linearGradient id="linear-gradient-15" x1="247.38" y1="131.42" x2="254.27" y2="131.12" xlink:href="#linear-gradient-3"/>
    <linearGradient id="linear-gradient-16" x1="251.62" y1="119.13" x2="247.59" y2="137.53" xlink:href="#linear-gradient-14"/>
    <radialGradient id="New_Gradient_Swatch_copy_5" data-name="New Gradient Swatch copy 5" cx="44.37" cy="53.9" fx="44.37" fy="53.9" r="6.77" gradientUnits="userSpaceOnUse">
      <stop offset=".12" stop-color="#f03224"/>
      <stop offset=".16" stop-color="#e62b1e"/>
      <stop offset=".28" stop-color="#cf1a11"/>
      <stop offset=".4" stop-color="#c01008"/>
      <stop offset=".49" stop-color="#bc0d06"/>
      <stop offset=".78" stop-color="#a60906"/>
    </radialGradient>
    <linearGradient id="linear-gradient-17" x1="196.42" y1="157.48" x2="205.06" y2="157.48" xlink:href="#linear-gradient-3"/>
    <linearGradient id="linear-gradient-18" x1="752.71" y1="158.11" x2="756.57" y2="158.11" gradientTransform="translate(958.59) rotate(-180) scale(1 -1)" gradientUnits="userSpaceOnUse">
      <stop offset="0" stop-color="#bcbec0"/>
      <stop offset=".69" stop-color="#e8e9ea"/>
      <stop offset="1" stop-color="#fff"/>
    </linearGradient>
    <linearGradient id="linear-gradient-19" x1="190.92" y1="157.36" x2="199.63" y2="157.36" xlink:href="#linear-gradient-3"/>
    <linearGradient id="linear-gradient-20" x1="758.13" y1="157.99" x2="762.03" y2="157.99" xlink:href="#linear-gradient-18"/>
    <radialGradient id="radial-gradient-2" cx="191.49" cy="154.34" fx="191.49" fy="154.34" r="3.36" gradientUnits="userSpaceOnUse">
      <stop offset=".16" stop-color="#f90"/>
      <stop offset=".34" stop-color="#fc9500"/>
      <stop offset=".52" stop-color="#f58900"/>
      <stop offset=".69" stop-color="#ea7500"/>
      <stop offset=".87" stop-color="#da5a00"/>
      <stop offset=".99" stop-color="#cc4100"/>
    </radialGradient>
    <radialGradient id="radial-gradient-3" cx="764.25" cy="154.89" fx="764.25" fy="154.89" r="1.98" gradientTransform="translate(958.59) rotate(-180) scale(1 -1)" xlink:href="#radial-gradient-2"/>
    <linearGradient id="linear-gradient-21" x1="247.49" y1="132.01" x2="251.63" y2="132.01" xlink:href="#linear-gradient-3"/>
    <linearGradient id="linear-gradient-22" x1="706.23" y1="132.21" x2="709.67" y2="132.21" xlink:href="#linear-gradient-18"/>
    <linearGradient id="linear-gradient-23" x1="249.34" y1="128.12" x2="252.77" y2="128.12" xlink:href="#linear-gradient-3"/>
    <linearGradient id="linear-gradient-24" x1="705.26" y1="128.08" x2="707.91" y2="128.08" xlink:href="#linear-gradient-18"/>
    <linearGradient id="linear-gradient-25" x1="111.17" y1="99.19" x2="104.3" y2="110.76" gradientUnits="userSpaceOnUse">
      <stop offset="0" stop-color="#9c9c9c"/>
      <stop offset=".01" stop-color="#989898"/>
      <stop offset=".26" stop-color="#626262"/>
      <stop offset=".49" stop-color="#383838"/>
      <stop offset=".7" stop-color="#191919"/>
      <stop offset=".88" stop-color="#060606"/>
      <stop offset="1" stop-color="#000"/>
    </linearGradient>
    <linearGradient id="linear-gradient-26" x1="39.42" y1="95.75" x2="45.88" y2="81.98" xlink:href="#linear-gradient-14"/>
    <linearGradient id="linear-gradient-27" x1="199.14" y1="181.58" x2="205.6" y2="167.8" xlink:href="#linear-gradient-14"/>
    <linearGradient id="linear-gradient-28" x1="105.98" y1="133.38" x2="113.59" y2="120.2" xlink:href="#linear-gradient-14"/>
    <radialGradient id="radial-gradient-4" cx="221.77" cy="149.5" fx="221.77" fy="149.5" r="30.97" xlink:href="#radial-gradient"/>
    <radialGradient id="Radial_Gradient_1-5" data-name="Radial Gradient 1" cx="219.13" cy="147.93" fx="219.13" fy="147.93" r="27.99" xlink:href="#Radial_Gradient_1"/>
    <linearGradient id="linear-gradient-29" x1="221.29" y1="177.85" x2="218.32" y2="157.93" xlink:href="#linear-gradient-14"/>
    <linearGradient id="linear-gradient-30" x1="200.58" y1="185.97" x2="207.9" y2="173.48" xlink:href="#linear-gradient-14"/>
    <linearGradient id="linear-gradient-31" x1="205.65" y1="42.66" x2="166.69" y2="97.13" xlink:href="#linear-gradient-25"/>
    <linearGradient id="linear-gradient-32" x1="198.41" y1="161.01" x2="253.75" y2="161.01" xlink:href="#linear-gradient-2"/>
    <linearGradient id="linear-gradient-33" x1="273.13" y1="135.44" x2="175.14" y2="113.67" gradientUnits="userSpaceOnUse">
      <stop offset="0" stop-color="#e0c95e"/>
      <stop offset=".01" stop-color="#dbc55c"/>
      <stop offset=".22" stop-color="#998940"/>
      <stop offset=".42" stop-color="#625829"/>
      <stop offset=".6" stop-color="#383217"/>
      <stop offset=".76" stop-color="#19160a"/>
      <stop offset=".9" stop-color="#060602"/>
      <stop offset="1" stop-color="#000"/>
    </linearGradient>
    <radialGradient id="Radial_Gradient_1-6" data-name="Radial Gradient 1" cx="195.26" cy="153.32" fx="195.26" fy="153.32" r="7.19" xlink:href="#Radial_Gradient_1"/>
    <linearGradient id="linear-gradient-34" x1="170.92" y1="93.03" x2="84.37" y2="5.83" xlink:href="#linear-gradient-33"/>
    <linearGradient id="linear-gradient-35" x1="128.32" y1="56.71" x2="181.56" y2="40.77" xlink:href="#linear-gradient-2"/>
    <linearGradient id="linear-gradient-36" x1="116.76" y1="60.8" x2="125.55" y2="56.96" xlink:href="#linear-gradient-2"/>
    <linearGradient id="linear-gradient-37" x1="155.65" y1="5.46" x2="129.11" y2="56.05" xlink:href="#linear-gradient-2"/>
    <linearGradient id="linear-gradient-38" x1="128.11" y1="51.72" x2="183.62" y2="35.1" gradientUnits="userSpaceOnUse">
      <stop offset=".04" stop-color="#bcbec0"/>
      <stop offset=".38" stop-color="#cbcdce"/>
      <stop offset="1" stop-color="#f1f2f2"/>
    </linearGradient>
    <linearGradient id="linear-gradient-39" x1="128.81" y1="51.52" x2="179.6" y2="36.31" xlink:href="#linear-gradient-2"/>
    <linearGradient id="linear-gradient-40" x1="115.34" y1="57.88" x2="125.38" y2="53.49" xlink:href="#linear-gradient-38"/>
    <linearGradient id="linear-gradient-41" x1="157.13" y1="-4.4" x2="128.9" y2="49.4" xlink:href="#linear-gradient-38"/>
    <radialGradient id="Radial_Gradient_1-7" data-name="Radial Gradient 1" cx="128.28" cy="49.32" fx="128.28" fy="49.32" r="14.23" xlink:href="#Radial_Gradient_1"/>
    <linearGradient id="linear-gradient-42" x1="128.84" y1="53.77" x2="167.11" y2="31.65" xlink:href="#linear-gradient-38"/>
    <linearGradient id="linear-gradient-43" x1="128.84" y1="53.76" x2="167.11" y2="31.64" xlink:href="#linear-gradient-38"/>
    <linearGradient id="linear-gradient-44" x1="128.84" y1="53.77" x2="167.11" y2="31.64" xlink:href="#linear-gradient-38"/>
    <linearGradient id="linear-gradient-45" x1="128.85" y1="53.77" x2="167.11" y2="31.65" xlink:href="#linear-gradient-38"/>
    <linearGradient id="linear-gradient-46" x1="133.61" y1="83.6" x2="78.17" y2="150.88" xlink:href="#linear-gradient-25"/>
    <linearGradient id="linear-gradient-47" x1="51.35" y1="71.25" x2="143.72" y2="122.6" gradientUnits="userSpaceOnUse">
      <stop offset=".04" stop-color="#000"/>
      <stop offset=".29" stop-color="#0d0e0f"/>
      <stop offset=".79" stop-color="#323437"/>
      <stop offset="1" stop-color="#43464a"/>
    </linearGradient>
    <linearGradient id="linear-gradient-48" x1="51.25" y1="71.42" x2="143.62" y2="122.77" xlink:href="#linear-gradient-47"/>
    <linearGradient id="linear-gradient-49" x1="51.16" y1="71.59" x2="143.52" y2="122.94" xlink:href="#linear-gradient-47"/>
    <linearGradient id="linear-gradient-50" x1="51.06" y1="71.76" x2="143.43" y2="123.11" xlink:href="#linear-gradient-47"/>
    <linearGradient id="linear-gradient-51" x1="50.97" y1="71.94" x2="143.33" y2="123.28" xlink:href="#linear-gradient-47"/>
    <linearGradient id="linear-gradient-52" x1="50.88" y1="72.11" x2="143.24" y2="123.46" xlink:href="#linear-gradient-47"/>
    <linearGradient id="linear-gradient-53" x1="48.97" y1="75.54" x2="141.33" y2="126.88" xlink:href="#linear-gradient-47"/>
    <linearGradient id="linear-gradient-54" x1="48.87" y1="75.71" x2="141.23" y2="127.06" xlink:href="#linear-gradient-47"/>
    <linearGradient id="linear-gradient-55" x1="48.78" y1="75.88" x2="141.14" y2="127.23" xlink:href="#linear-gradient-47"/>
    <linearGradient id="linear-gradient-56" x1="48.68" y1="76.05" x2="141.04" y2="127.4" xlink:href="#linear-gradient-47"/>
    <linearGradient id="linear-gradient-57" x1="48.59" y1="76.22" x2="140.95" y2="127.57" xlink:href="#linear-gradient-47"/>
    <linearGradient id="linear-gradient-58" x1="48.49" y1="76.4" x2="140.85" y2="127.74" xlink:href="#linear-gradient-47"/>
    <linearGradient id="linear-gradient-59" x1="145.15" y1="117.33" x2="125.78" y2="123.38" gradientUnits="userSpaceOnUse">
      <stop offset="0" stop-color="#696969"/>
      <stop offset=".24" stop-color="#9c9c9c"/>
      <stop offset=".48" stop-color="#c6c6c6"/>
      <stop offset=".69" stop-color="#e5e5e5"/>
      <stop offset=".87" stop-color="#f8f8f8"/>
      <stop offset="1" stop-color="#fff"/>
    </linearGradient>
    <radialGradient id="radial-gradient-5" cx="137.07" cy="109.61" fx="137.07" fy="109.61" r="10.74" xlink:href="#radial-gradient"/>
    <linearGradient id="linear-gradient-60" x1="136.91" y1="108.92" x2="137.77" y2="116.78" xlink:href="#linear-gradient-25"/>
    <linearGradient id="linear-gradient-61" x1="111.07" y1="41.76" x2="82.14" y2="82.2" xlink:href="#linear-gradient-25"/>
  </defs>
  <g class="cls-80">
    <g id="Layer_1" data-name="Layer 1">
      <g>
        <path class="cls-29" d="M43.18,107.75l116.96,66.74c19.96,11.39,44.46,11.33,64.37-.16l27.3-15.75c2.77-1.6,2.77-5.59,0-7.2L105.54,66.63c-1.29-.75-2.88-.75-4.17,0l-58.21,33.91c-2.77,1.61-2.75,5.61.03,7.2Z"/>
        <path class="cls-55" d="M48,97.23l13.86-7.88-6.23-8.16s-10.17,9.85-9.85,10.66c.32.81,2.22,5.38,2.22,5.38Z"/>
        <path class="cls-55" d="M149.98,155.89l20.95-12.21s-14.37-7.43-15.02-7.43-9.37,5.65-9.37,5.65l3.44,13.98Z"/>
        <g>
          <path class="cls-7" d="M182.16,163.71c0,3.75-1.29,6.4-3.4,7.69-.06.04-6.64,3.85-6.71,3.88-2.19,1.22-.79-1.55-4.11-3.47-6.69-3.86-12.11-13.21-12.11-20.89,0-3.8-3.51-3.83-1.36-5.09.06-.03,7.06-3.91,7.12-3.94,2.18-1.18,5.17-.96,8.46.93,6.69,3.86,12.11,13.21,12.11,20.89Z"/>
          <path class="cls-44" d="M175.15,167.69c0,7.68-5.42,10.77-12.11,6.91-6.69-3.86-12.11-13.22-12.11-20.89s5.42-10.77,12.11-6.91c6.69,3.86,12.11,13.21,12.11,20.89Z"/>
          <path class="cls-19" d="M163.62,146.51c-3.21-1.85-6.12-2.1-8.29-1.02,2.02-.57,4.53-.14,7.24,1.42,6.69,3.86,12.11,13.22,12.11,20.89,0,4-1.47,6.75-3.83,7.92,2.96-.83,4.87-3.77,4.87-8.33,0-7.68-5.42-17.03-12.11-20.89Z"/>
          <path class="cls-69" d="M163.44,150.19c-5.15-2.97-9.33-.59-9.33,5.32s4.17,13.11,9.33,16.09c5.15,2.97,9.33.59,9.33-5.32s-4.18-13.11-9.33-16.09ZM167,161.98l2.89-.25c.43-.04.99.54,1.13,1.17.18.86.27,1.71.27,2.53s-.1,1.56-.27,2.21c-.13.48-.69.41-1.13-.13l-2.89-3.59c-.25-.31-.41-.71-.39-1.03,0-.06,0-.11,0-.17s0-.12,0-.18c-.01-.34.14-.55.39-.57ZM168.85,159.05l-2.89.25c-.25.02-.56-.15-.8-.47-.08-.11-.17-.22-.26-.32-.26-.3-.41-.71-.41-1.04v-3.82c0-.58.48-.72.97-.29,1.37,1.21,2.59,2.74,3.56,4.42.35.61.27,1.25-.17,1.28ZM162.39,152.43v3.82c0,.33-.15.56-.41.56-.09,0-.18,0-.26.02-.24.04-.55-.14-.8-.45l-2.89-3.59c-.43-.54-.52-1.27-.17-1.48.97-.56,2.19-.69,3.56-.31.49.14.97.83.97,1.41ZM156.98,154.28l2.89,3.59c.25.31.41.71.39,1.03,0,.06,0,.11,0,.17s0,.12,0,.17c.02.34-.14.55-.39.58l-2.89.25c-.43.04-.99-.54-1.13-1.17-.18-.86-.27-1.71-.27-2.53s.1-1.56.27-2.21c.13-.48.69-.41,1.13.13ZM158.03,162.74l2.89-.25c.25-.02.56.16.8.47.08.11.17.22.26.32.26.3.41.71.41,1.04v3.83c0,.58-.48.72-.97.29-1.37-1.21-2.59-2.74-3.56-4.42-.35-.61-.26-1.25.17-1.28ZM164.48,169.36v-3.82c0-.33.16-.56.41-.56.09,0,.17,0,.26-.02.24-.04.55.14.8.45l2.89,3.58c.43.54.52,1.27.17,1.48-.97.56-2.19.69-3.56.31-.49-.13-.97-.83-.97-1.41Z"/>
          <path class="cls-74" d="M162.86,150.43c-5.15-2.97-9.33-.59-9.33,5.32s4.18,13.11,9.33,16.09c5.15,2.97,9.33.59,9.33-5.32s-4.18-13.11-9.33-16.09ZM166.42,162.21l2.89-.25c.43-.04.99.54,1.13,1.17.18.86.27,1.71.27,2.53s-.09,1.56-.27,2.21c-.13.48-.69.41-1.13-.13l-2.89-3.59c-.25-.31-.41-.71-.39-1.03,0-.06,0-.11,0-.17s0-.12,0-.17c-.02-.34.14-.55.39-.58ZM168.26,159.28l-2.89.25c-.25.02-.56-.16-.8-.47-.08-.11-.17-.22-.26-.32-.26-.3-.41-.71-.41-1.04v-3.83c0-.58.48-.72.97-.29,1.37,1.21,2.59,2.74,3.56,4.42.35.61.26,1.25-.17,1.28ZM161.81,152.67v3.82c0,.33-.16.56-.41.56-.09,0-.17,0-.26.02-.24.04-.55-.14-.8-.45l-2.89-3.59c-.43-.54-.52-1.27-.17-1.48.97-.56,2.19-.69,3.56-.31.49.14.97.83.97,1.41ZM156.4,154.51l2.89,3.59c.25.31.41.71.39,1.03,0,.06,0,.11,0,.17s0,.12,0,.17c.02.34-.14.55-.39.58l-2.89.25c-.43.04-.99-.54-1.13-1.17-.18-.86-.27-1.71-.27-2.53s.1-1.56.27-2.21c.13-.48.69-.41,1.13.13ZM157.45,162.98l2.89-.25c.25-.02.56.16.8.47.08.11.17.22.26.32.26.3.41.71.41,1.04v3.82c0,.58-.48.72-.97.29-1.37-1.21-2.59-2.74-3.56-4.42-.35-.61-.27-1.25.17-1.28ZM163.9,169.59v-3.82c0-.33.16-.56.41-.56.09,0,.17,0,.26-.02.24-.04.55.14.8.45l2.89,3.59c.43.54.52,1.27.17,1.48-.97.56-2.19.69-3.56.31-.49-.13-.97-.83-.97-1.41Z"/>
        </g>
        <g>
          <path class="cls-24" d="M80.41,106.54c0,3.75-1.29,6.41-3.4,7.69-.06.04-6.65,3.85-6.71,3.88-2.19,1.22-.79-1.55-4.11-3.47-6.69-3.86-12.11-13.21-12.11-20.89,0-3.79-3.51-3.83-1.36-5.09.06-.04,7.06-3.91,7.12-3.94,2.18-1.18,5.16-.96,8.45.93,6.69,3.86,12.11,13.22,12.11,20.89Z"/>
          <path class="cls-12" d="M73.39,110.53c0,7.68-5.42,10.77-12.11,6.91-6.69-3.86-12.11-13.21-12.11-20.89s5.42-10.77,12.11-6.91c6.69,3.86,12.11,13.22,12.11,20.89Z"/>
          <path class="cls-25" d="M61.86,89.34c-3.21-1.85-6.12-2.1-8.29-1.02,2.02-.57,4.53-.14,7.24,1.42,6.69,3.86,12.11,13.21,12.11,20.89,0,4-1.47,6.75-3.83,7.92,2.96-.83,4.87-3.77,4.87-8.33,0-7.68-5.42-17.03-12.11-20.89Z"/>
          <path class="cls-71" d="M61.68,93.03c-5.15-2.97-9.33-.59-9.33,5.32s4.17,13.11,9.33,16.09c5.15,2.97,9.33.59,9.33-5.32s-4.18-13.11-9.33-16.09ZM65.24,104.81l2.9-.25c.43-.04.99.54,1.12,1.17.18.86.28,1.71.28,2.53s-.1,1.56-.28,2.21c-.13.48-.69.41-1.12-.13l-2.9-3.59c-.25-.31-.4-.71-.39-1.03,0-.05,0-.11,0-.17s0-.12,0-.18c-.01-.34.14-.55.39-.58ZM67.09,101.89l-2.89.25c-.25.02-.56-.16-.8-.47-.08-.11-.17-.22-.26-.32-.26-.3-.41-.71-.41-1.04v-3.82c0-.58.48-.73.97-.29,1.37,1.21,2.59,2.74,3.56,4.42.35.61.27,1.25-.17,1.28ZM60.64,95.27v3.82c0,.33-.15.56-.41.56-.09,0-.17,0-.26.02-.24.04-.55-.14-.8-.45l-2.89-3.59c-.43-.54-.52-1.27-.17-1.48.97-.56,2.19-.69,3.56-.31.49.13.97.83.97,1.41ZM55.23,97.11l2.89,3.59c.25.31.41.71.39,1.03,0,.06,0,.11,0,.17s0,.12,0,.18c.01.34-.14.55-.39.58l-2.89.25c-.43.04-.99-.54-1.13-1.17-.18-.86-.28-1.71-.28-2.53s.1-1.56.28-2.21c.13-.48.69-.41,1.13.13ZM56.28,105.58l2.89-.25c.25-.02.56.16.8.47.08.11.17.22.26.32.26.3.41.71.41,1.04v3.82c0,.58-.48.73-.97.29-1.37-1.21-2.59-2.74-3.56-4.42-.35-.61-.27-1.25.17-1.28ZM62.73,112.19v-3.82c0-.33.16-.56.41-.56.09,0,.17,0,.26-.02.24-.04.55.14.8.45l2.89,3.59c.43.54.52,1.27.17,1.48-.97.56-2.19.69-3.56.31-.49-.13-.97-.83-.97-1.41Z"/>
          <path class="cls-59" d="M61.1,93.26c-5.15-2.97-9.33-.59-9.33,5.32s4.18,13.11,9.33,16.09c5.15,2.97,9.33.59,9.33-5.32s-4.18-13.11-9.33-16.09ZM64.66,105.05l2.89-.25c.43-.04.99.54,1.13,1.17.18.86.27,1.71.27,2.53s-.1,1.56-.27,2.21c-.13.48-.69.41-1.13-.13l-2.89-3.59c-.25-.31-.41-.71-.39-1.03,0-.06,0-.11,0-.17s0-.12,0-.18c-.02-.34.14-.55.39-.58ZM66.51,102.12l-2.89.25c-.25.02-.56-.16-.8-.47-.08-.11-.17-.22-.26-.32-.26-.3-.41-.71-.41-1.04v-3.82c0-.58.48-.73.97-.3,1.37,1.21,2.59,2.74,3.56,4.42.35.61.27,1.25-.17,1.28ZM60.06,95.5v3.83c0,.33-.16.56-.41.56-.09,0-.17,0-.26.02-.24.04-.55-.14-.8-.45l-2.89-3.59c-.43-.54-.52-1.27-.17-1.48.97-.56,2.19-.69,3.56-.31.49.13.97.83.97,1.41ZM54.65,97.35l2.89,3.59c.25.31.41.71.39,1.03,0,.06,0,.11,0,.17s0,.12,0,.18c.02.34-.14.55-.39.58l-2.89.25c-.43.04-.99-.54-1.13-1.17-.18-.86-.27-1.71-.27-2.53s.09-1.56.27-2.21c.13-.48.69-.41,1.13.13ZM55.69,105.81l2.89-.25c.25-.02.56.16.8.47.08.11.17.22.26.32.26.3.41.71.41,1.04v3.82c0,.58-.48.73-.97.29-1.37-1.21-2.59-2.74-3.56-4.42-.35-.61-.26-1.25.17-1.28ZM62.15,112.43v-3.82c0-.33.16-.56.41-.56.09,0,.17,0,.26-.02.24-.04.55.14.8.45l2.89,3.59c.43.54.52,1.27.17,1.48-.97.56-2.19.69-3.56.31-.49-.13-.97-.83-.97-1.41Z"/>
        </g>
        <path class="cls-53" d="M202.74,77.31s2.48-6.9,4.89-4.1c2.4,2.81,1.28,13.14,1.28,13.14l-6.16-9.04Z"/>
        <path class="Graphic_Style_4" d="M250.86,122.85c-3.87-7.27-44.32-42.93-65.72-59.75-21.4-16.82-50.64-29.41-57.54-31.76-6.9-2.35-25.88-3.84-35.47-3.61-11.09.27-43.86,21.63-48.17,25.24,0,0-6.14,24.22-6.14,26.8s5.08,13.29,10.18,17.44c-.02-.39-.04-.79-.04-1.18,0-8.92,6.3-12.51,14.07-8.02,7.77,4.49,14.07,15.35,14.07,24.27,0,.49-.02.96-.06,1.42,21.51,12.35,51.41,29.38,73.93,42.17-.36-1.64-.56-3.26-.56-4.83,0-8.92,6.3-12.51,14.07-8.02,7.77,4.49,14.07,15.35,14.07,24.27,0,1.46-.17,2.78-.49,3.94,1.73.98,3.03,1.71,3.82,2.16,11.42,6.42,34.7-2.98,57.2-15.52,21.95-12.23,16.63-27.77,12.76-35.04Z"/>
        <path class="cls-72" d="M159.62,123.98c-10.33-10.5-17.28-27.45-26.16-41.02-8.88-13.56-41.01-26.97-47.63-27.93-6.06-.89-30.22.14-41.79-2.12-.03.02-.06.05-.09.07,0,0-6.14,24.22-6.14,26.8s5.08,13.29,10.18,17.44c-.02-.39-.04-.79-.04-1.18,0-8.92,6.3-12.51,14.07-8.02,7.77,4.49,14.07,15.35,14.07,24.27,0,.49-.02.96-.06,1.42,21.51,12.35,51.41,29.38,73.93,42.17-.36-1.64-.56-3.26-.56-4.83,0-8.92,6.3-12.51,14.07-8.02,7.77,4.49,14.07,15.35,14.07,24.27,0,1.46-.17,2.78-.49,3.94,1.73.98,3.03,1.71,3.82,2.16,3.32,1.86,7.64,2.39,12.64,1.89.59-6.64.84-16.22-2.11-19.67-4.68-5.49-21.48-21.15-31.81-31.65Z"/>
        <path class="cls-14" d="M193.04,154.88c-4.68-5.49-21.48-21.15-31.81-31.65-10.33-10.5-18.55-28.34-27.43-41.9-8.88-13.56-39.74-26.08-46.36-27.05-6.06-.89-30.22.14-41.79-2.12-.03.02,32.24,1.75,37.7,2.55,6.62.97,38.88,13.16,47.76,26.72,8.88,13.56,15.82,30.52,26.16,41.02,10.33,10.5,27,27.37,31.69,32.86,2.91,3.41,2.7,12.78,2.13,19.4,1.3.03,2.65-.02,4.07-.16.59-6.64.84-16.22-2.11-19.68Z"/>
        <path class="cls-51" d="M84.65,51.53l34.12-19.43s-15.18-4.47-30.03.54c-14.86,5.01-28.15,15.07-27.5,17.65.64,2.58,19.7,2.21,23.41,1.24Z"/>
        <path class="cls-18" d="M93.7,32.55c3.6-1.21,7.21-1.92,10.66-2.28-4.75-.02-10.21.54-15.63,2.37-14.86,5.01-28.15,15.07-27.5,17.65.13.52,1,.91,2.34,1.21.47-3.32,14.51-13.69,30.13-18.96Z"/>
        <path class="cls-18" d="M140.38,84.52c1.21-4.93,34.42-22.7,37.65-22.87,3.23-.16,35.85,25.19,34.72,31.33-1.13,6.14-37.95,29.87-50.15,24.93-13.53-5.47-23.23-29.23-22.21-33.39Z"/>
        <path class="cls-70" d="M141.75,84.96c1.18-4.79,33.46-22.07,36.6-22.23,3.14-.16,34.85,24.49,33.75,30.45-1.1,5.97-36.89,29.04-48.76,24.24-13.15-5.32-22.59-28.41-21.59-32.46Z"/>
        <path class="cls-18" d="M207.61,84.78c.69,1.19,1.02,2.19.88,2.92-1.16,6.3-38.05,30.21-51.75,26.52,1.82,1.57,3.77,2.85,5.85,3.69,12.21,4.94,49.02-18.8,50.15-24.93.3-1.64-1.81-4.66-5.13-8.2Z"/>
        <path class="cls-18" d="M147.03,118.97l-86.93-50.65s19.43-12.65,34.29-7.48c14.85,5.17,37.14,20.83,41.18,30.19,4.04,9.37,11.46,27.93,11.46,27.93Z"/>
        <path class="cls-22" d="M144.67,117.04l-82.2-47.89s18.37-11.96,32.42-7.07c14.05,4.89,35.12,19.7,38.94,28.55,3.82,8.86,10.84,26.42,10.84,26.42Z"/>
        <path class="cls-4" d="M207.64,151.27s4.49,8.15,6.78,8.23c2.29.08,8.27-2.03,20.22-8.97,7.64-4.44,11.02-7.5,11.78-9.92.75-2.42-1.16-10.98-1.16-10.98,0,0-4.52,5.33-16.79,12.27-9.71,5.49-20.83,9.37-20.83,9.37Z"/>
        <path class="cls-28" d="M245.26,129.63s-.23.27-.72.77c.51,2.59,1.38,7.63.83,9.41-.75,2.42-4.13,5.48-11.77,9.92-11.95,6.94-17.94,9.05-20.23,8.97-.21,0-.43-.08-.67-.21.63.61,1.23,1,1.72,1.02,2.29.08,8.27-2.03,20.22-8.97,7.64-4.44,11.02-7.5,11.78-9.92.75-2.42-1.16-10.98-1.16-10.98Z"/>
        <path class="cls-32" d="M204.46,151.81l5.81,9.15s-7.32,1.72-12.16,1.45c-4.84-.27-8.72-3.5-10.23-6.08-1.51-2.58-1.83-7.32-1.83-7.32,0,0,5.92,2.69,10.44,3.34,4.52.65,7.97-.54,7.97-.54Z"/>
        <path class="cls-21" d="M204.46,151.81l5.81,9.15s-8.39-1.1-14.91-4.43c-6.51-3.32-9.31-7.52-9.31-7.52,0,0,5.92,2.69,10.44,3.34,4.52.65,7.97-.54,7.97-.54Z"/>
        <path class="cls-20" d="M247.27,129.02l1.12,10.14s5.49-4.41,5.81-8.07c.32-3.66-2.62-7.63-2.62-7.63,0,0-.97,2.82-4.31,5.57Z"/>
        <path class="cls-10" d="M247.27,129.02l1.12,10.14s2.68-5.87,3-9.53c.32-3.66.19-6.18.19-6.18,0,0-.97,2.82-4.31,5.57Z"/>
        <path class="cls-65" d="M46,50.94s-2.69,1.18-3.55,2.69c-.86,1.51-2.15,14.64-2.15,14.64,0,0,7.5-12.33,8.07-13.56.58-1.24-2.37-3.77-2.37-3.77Z"/>
        <g>
          <path class="cls-5" d="M205.06,155.78l-2.29,4.86s-6.99-4.32-6.3-5.82c.69-1.49,8.59.96,8.59.96Z"/>
          <path class="cls-63" d="M202.02,159.22c0,1.22.87,1.72,1.93,1.1,1.07-.62,1.93-2.11,1.93-3.33s-.87-1.72-1.93-1.1c-1.07.62-1.93,2.11-1.93,3.33Z"/>
        </g>
        <path class="cls-6" d="M199.63,155.64l-2.32,4.9s-7.05-4.36-6.35-5.87c.7-1.51,8.67.97,8.67.97Z"/>
        <path class="cls-43" d="M196.56,159.12c0,1.23.87,1.73,1.95,1.11,1.08-.62,1.95-2.13,1.95-3.36s-.87-1.73-1.95-1.11c-1.08.62-1.95,2.13-1.95,3.36Z"/>
        <path class="cls-48" d="M195.33,152.82l-2.04,4.32s-6.22-3.84-5.6-5.17c.62-1.33,7.64.85,7.64.85Z"/>
        <path class="cls-73" d="M192.62,155.88c0,1.09.77,1.53,1.72.98.95-.55,1.72-1.87,1.72-2.96s-.77-1.53-1.72-.98c-.95.55-1.72,1.87-1.72,2.96Z"/>
        <path class="cls-11" d="M251.63,130.14l-2.04,4.32s-2.62-2.98-2-4.3c.62-1.33,4.04-.02,4.04-.02Z"/>
        <path class="cls-36" d="M248.92,133.21c0,1.09.77,1.53,1.72.98.95-.55,1.72-1.87,1.72-2.96s-.77-1.53-1.72-.98c-.95.55-1.72,1.87-1.72,2.96Z"/>
        <path class="cls-33" d="M252.77,126.48l-1.57,3.32s-2.27-1.61-1.79-2.64c.47-1.02,3.36-.69,3.36-.69Z"/>
        <path class="cls-61" d="M250.69,128.84c0,.84.59,1.17,1.32.75.73-.42,1.32-1.44,1.32-2.28s-.59-1.18-1.32-.75c-.73.42-1.32,1.44-1.32,2.28Z"/>
        <polygon class="cls-9" points="60.32 69.29 148.27 119.76 163.93 136.23 162.32 137.85 148.76 133.17 49.83 76.6 60.32 69.29"/>
        <g class="cls-79">
          <path class="cls-62" d="M48,97.23c-.02-.39-.04-.79-.04-1.18,0-5.33,2.25-8.75,5.72-9.69-6.54-3.81-11.87-6.91-15.49-9.02-.23,1.19-.37,2.07-.37,2.45,0,2.48,5.08,13.29,10.18,17.44Z"/>
          <path class="cls-52" d="M252.98,142.92c-3.89,3.67-9.32,8.54-14.82,12.54-10.33,7.54-36.06,15.69-45.64,10.98-1.74-.86-8.15-4.46-17.45-9.78,1.58,3.52,2.51,7.22,2.51,10.64,0,1.46-.17,2.78-.49,3.94,1.73.98,3.03,1.71,3.82,2.16,11.42,6.42,34.7-2.98,57.2-15.52,8.47-4.72,12.87-9.93,14.88-14.97Z"/>
          <path class="cls-67" d="M149.98,155.89c-.36-1.64-.56-3.26-.56-4.83,0-3.39.91-6.01,2.47-7.71-25.11-14.49-56.98-33-81.41-47.21,3.42,4.92,5.62,10.88,5.62,16.16,0,.49-.02.96-.06,1.42,21.51,12.35,51.41,29.38,73.93,42.17Z"/>
        </g>
        <path class="cls-78" d="M183.69,157.24s10.5,6.35,14.85,6.46c6.78.16,20.35-3.17,34.03-11.6,21.09-13,21.84-21.34,21.84-21.34,0,0,1.61,10.09.97,14.85-.64,4.77-4.85,10.87-23.25,20.51-17.72,9.28-32.13,11.14-39.08,10.33-6.94-.81-12.15-3.05-12.15-3.05l2.79-16.17Z"/>
        <path class="cls-13" d="M199.29,165.1c6.78.16,20.35-3.17,34.03-11.6,16.19-9.98,20.39-17.21,21.47-20.04-.21-1.62-.38-2.71-.38-2.71,0,0-.75,8.34-21.84,21.34-13.68,8.43-27.25,11.76-34.03,11.6-4.36-.1-14.85-6.46-14.85-6.46l-.22,1.3c4.63,2.44,12.79,6.49,15.83,6.56Z"/>
        <path class="cls-26" d="M255.38,145.62c.19-1.37.18-3.19.09-5.09-3.79,3.7-10.5,9.97-17.31,14.94-10.33,7.54-36.06,15.69-45.64,10.98-1.19-.58-4.55-2.45-9.51-5.26l-2.11,12.22s5.21,2.24,12.15,3.05c6.94.81,21.35-1.05,39.08-10.33,18.4-9.64,22.61-15.74,23.25-20.51Z"/>
        <path class="cls-35" d="M255.38,145.62c.19-1.37.18-3.19.09-5.09-3.79,3.7-10.5,9.97-17.31,14.94-10.33,7.54-36.06,15.69-45.64,10.98-1.19-.58-4.55-2.45-9.51-5.26l-2.11,12.22s5.21,2.24,12.15,3.05c6.94.81,21.35-1.05,39.08-10.33,18.4-9.64,22.61-15.74,23.25-20.51Z"/>
        <path class="cls-18" d="M136.98,113.12l10.05,5.85s-4.15-10.37-7.93-19.52l-2.12,13.66Z"/>
        <path class="cls-18" d="M85.95,59.61c-12.86.26-25.85,8.71-25.85,8.71l16.77,9.77c.39-2.06.93-4.8,1.53-7.46.95-4.23,5.7-9.21,7.55-11.02Z"/>
        <path class="cls-1" d="M145.07,79.8c23.88,7.06,48.9,6.86,63.62,6.16-8.64-9.71-28.2-24.43-30.66-24.31-2.53.13-23.42,11.05-32.96,18.15Z"/>
        <path class="cls-41" d="M229.76,165.8c16.25-8.07,23.04-14.94,23.79-17.31.75-2.37-.71-.17-3.88,2.26-4.2,3.23-10.65,7.12-21.21,12.68-17.83,9.38-29.5,8.83-30.03,9.9-.54,1.08,7.6,4.25,31.33-7.54Z"/>
        <path class="cls-17" d="M216.99,93.88s31.23,24.82,26.74,31.22c-4.48,6.41-34.43,26.26-46.28,22.58-11.85-3.68-29.94-24.98-29.94-24.98,0,0,21.14-4.96,34.75-14.25,13.61-9.29,14.73-14.57,14.73-14.57Z"/>
        <path class="cls-15" d="M204.46,151.81s-2.99,8.73-13.61,4.83c-2.81-1.03-4.79-7.62-4.79-7.62,0,0,5.92,2.69,10.44,3.34,4.52.65,7.97-.54,7.97-.54Z"/>
        <path class="cls-77" d="M139.34,78.96s34.07-19.05,34.39-20.18c.32-1.13-44.08-25.51-50.06-25.51s-31.49,17.44-30.2,18.89c1.29,1.45,21.48,8.72,27.45,13.4,5.97,4.68,13.56,10.98,18.41,13.4Z"/>
        <g>
          <g>
            <polygon class="cls-39" points="123.95 59.13 123.95 63.91 148.45 49.71 148.45 44.8 123.95 59.13"/>
            <polygon class="cls-56" points="123.97 59.13 123.97 63.91 116.39 59.61 116.39 54.69 123.97 59.13"/>
            <polygon class="cls-76" points="116.39 54.69 123.97 59.13 148.45 44.8 140.84 40.4 116.39 54.69"/>
          </g>
          <g>
            <polygon class="cls-3" points="121.73 51.8 124.43 62.17 150.91 46.86 148.21 36.36 121.73 51.8"/>
            <polygon class="cls-49" points="123.27 52.41 147.45 38.3 149.37 46.25 125.18 60.24 123.27 52.41"/>
            <polygon class="cls-31" points="121.75 51.8 124.44 62.17 115.09 56.89 116.62 49.04 121.75 51.8"/>
            <polygon class="cls-30" points="116.62 49.04 121.75 51.8 148.21 36.36 143.05 33.64 116.62 49.04"/>
            <polygon class="cls-42" points="116.62 49.04 121.76 51.1 148.21 36.36 122.67 52.02 124.4 61.76 121.06 52.02 116.62 49.04"/>
          </g>
          <g>
            <path class="cls-16" d="M131.53,55.4l-1.16.67-1.1-4.62-1.48.86-.24-.99,4.11-2.38.24.99-1.48.86,1.1,4.62Z"/>
            <path class="cls-34" d="M137.18,52.14l-.71-1.11-1.99,1.15-.08,1.56-1.24.72.58-6.74,1.41-.82,3.27,4.51-1.24.72ZM135.96,50.19c-.65-1-1.02-1.56-1.11-1.7-.08-.13-.15-.24-.19-.32,0,.37-.05,1.32-.12,2.83l1.42-.82Z"/>
            <path class="cls-66" d="M143.52,48.48l-1.32.76-1.77-1.39-.76,2.85-1.24.71,1.12-3.94-2.34-1.74,1.28-.74,1.65,1.34.67-2.68,1.24-.72-1.05,3.77,2.51,1.76Z"/>
            <path class="cls-47" d="M144.2,48.08l-1.34-5.61,1.15-.67,1.34,5.61-1.15.67Z"/>
          </g>
        </g>
        <polygon class="cls-18" points="101.98 92.71 111.02 97.87 114.14 71.18 109.19 68.06 101.98 92.71"/>
        <path class="cls-75" d="M147.24,119.49c-.1.25-2.47,6.18-2.95,15.06-.36,6.62-.45,11.77-.48,13.94l-37.71-21.73c-.08-2.75-.33-14,.67-26.25,1.14-14.01,5.9-30.06,5.95-30.22l-1.24-.37c-.05.16-4.85,16.35-6,30.49-.92,11.36-.78,21.85-.69,25.59l-21.58-12.44c-.61-1.33-4.4-9.56-8.52-18.75-4.35-9.71-.79-17.8-.76-17.88l-1.18-.53c-.16.35-3.84,8.68.75,18.94,4.48,10,8.57,18.87,8.61,18.95l.09.19,62.88,36.24v-1.12c0-.06,0-6.22.48-14.98.47-8.66,2.84-14.59,2.86-14.65l-1.2-.48Z"/>
        <g>
          <polygon class="cls-60" points="69.98 78.93 69.98 84.1 74.88 87 74.88 81.78 69.98 78.93"/>
          <polygon class="cls-57" points="80.21 84.84 80.21 90.01 85.11 92.91 85.11 87.69 80.21 84.84"/>
          <polygon class="cls-58" points="90.43 90.75 90.43 95.92 95.33 98.82 95.33 93.6 90.43 90.75"/>
          <polygon class="cls-40" points="100.66 96.66 100.66 101.83 105.56 104.73 105.56 99.51 100.66 96.66"/>
          <polygon class="cls-64" points="110.89 102.57 110.89 107.74 115.78 110.64 115.78 105.42 110.89 102.57"/>
          <polygon class="cls-45" points="121.11 108.48 121.11 113.65 126.01 116.55 126.01 111.33 121.11 108.48"/>
        </g>
        <g>
          <polygon class="cls-54" points="74.99 87.33 74.99 92.49 79.88 95.4 79.88 90.18 74.99 87.33"/>
          <polygon class="cls-37" points="85.21 93.24 85.21 98.4 90.11 101.31 90.11 96.09 85.21 93.24"/>
          <polygon class="cls-38" points="95.44 99.15 95.44 104.31 100.34 107.22 100.34 102 95.44 99.15"/>
          <polygon class="cls-68" points="105.67 105.06 105.67 110.22 110.56 113.13 110.56 107.91 105.67 105.06"/>
          <polygon class="cls-8" points="115.89 110.97 115.89 116.13 120.79 119.04 120.79 113.82 115.89 110.97"/>
          <polygon class="cls-27" points="126.12 116.88 126.12 122.04 131.02 124.95 131.02 119.73 126.12 116.88"/>
        </g>
        <g>
          <path class="cls-23" d="M146.22,118.49s-11.22,9.12-17.04,6.06c-5.81-3.07,11.14-9.93,11.14-9.93l5.89,3.88Z"/>
          <path class="cls-50" d="M139.34,109.79c-1.7-.16-9.86.52-11.22,4.11-1.36,3.59,17.95,5.58,18.57,4.81.62-.77-3.62-8.57-7.35-8.92Z"/>
          <path class="cls-2" d="M139.03,110.41c-1.34-.13-7.73.27-8.75,2.8-1.03,2.54,14.13,4.15,14.61,3.61.48-.54-2.93-6.13-5.86-6.41Z"/>
        </g>
        <path class="cls-46" d="M64.3,68.05c18.82,5.01,38,5.76,52.02,5.49-7.06-4.89-14.98-9.22-21.43-11.46-11.38-3.96-25.6,3.14-30.59,5.98Z"/>
      </g>
    </g>
  </g>
</svg>