<?xml version="1.0" encoding="UTF-8"?>
<svg id="Layer_1" data-name="Layer 1" xmlns="http://www.w3.org/2000/svg" viewBox="0 0 335.65 210.71">
  <defs>
    <style>
      .cls-1 {
        fill: #e6e6fe;
      }

      .cls-1, .cls-2, .cls-3, .cls-4, .cls-5, .cls-6, .cls-7, .cls-8, .cls-9, .cls-10, .cls-11, .cls-12, .cls-13, .cls-14, .cls-15, .cls-16, .cls-17, .cls-18, .cls-19, .cls-20, .cls-21, .cls-22, .cls-23, .cls-24, .cls-25, .cls-26 {
        stroke-width: 0px;
      }

      .cls-2 {
        fill: #393332;
      }

      .cls-3 {
        fill: #b0b9cc;
      }

      .cls-4 {
        fill: #4857b3;
      }

      .cls-5 {
        fill: #5c5cc0;
      }

      .cls-6 {
        fill: #32026a;
      }

      .cls-7 {
        fill: #bb4900;
      }

      .cls-8 {
        fill: #ffbd00;
      }

      .cls-9 {
        fill: #001b24;
      }

      .cls-10 {
        fill: #ff84c5;
      }

      .cls-11 {
        fill: #b8b8ef;
      }

      .cls-12 {
        fill: #800244;
      }

      .cls-13 {
        fill: #fff;
      }

      .cls-14 {
        fill: #ffe9ca;
      }

      .cls-15 {
        fill: #0053d6;
      }

      .cls-16 {
        fill: #c5065e;
      }

      .cls-17 {
        fill: #6716a1;
      }

      .cls-18 {
        fill: #ff9500;
      }

      .cls-19 {
        fill: #ff147a;
      }

      .cls-20 {
        fill: #c56800;
      }

      .cls-21 {
        fill: #404040;
      }

      .cls-22 {
        fill: #ff98a9;
      }

      .cls-23 {
        fill: #470789;
      }

      .cls-24 {
        fill: #253b8c;
      }

      .cls-25 {
        fill: #e62323;
      }

      .cls-26 {
        fill: #f6667e;
      }
    </style>
  </defs>
  <g>
    <path class="cls-11" d="M198.33,46.55c-3.01-11.61-11.5-22.28-22.41-27.37-8.45-3.94-18.33-4.71-27.29-2.13-6.9,1.99-13.36,6.06-17.26,12.08-6.96,10.76-1.4,22.52,1.85,33.51,1.89,6.37,2.87,13.45.14,19.51-5.71,12.66-22.34,15.06-30.48,25.66-10.53,13.7-19.07,32.29-5.17,47.24,13.06,14.04,33.06,9.35,45.78-2.27,9.72-8.88,23.45-15.22,36.83-13.08,13.1,2.09,22.98,11.93,33.22,19.52,14.63,10.86,36.1,6.43,47.88-6.59,12.23-13.52,13.65-41.87-1.6-53.85-6.48-5.09-14.28-5.8-22.09-7.14-10.94-1.88-28.97-6.12-34.69-16.77-4.59-8.55-2.36-18.67-4.58-27.79-.04-.18-.09-.35-.13-.53Z"/>
    <path class="cls-5" d="M283.98,163.57h-11.4c.82-.45,1.39-1.32,1.39-2.33v-19.74c0-1.47-1.19-2.67-2.67-2.67h-14.33c-1.47,0-2.67-1.19-2.67-2.67v-15.57c0-1.47-1.19-2.67-2.67-2.67h-7.11c-1.47,0-2.67,1.19-2.67,2.67v6.49c0,1.47-1.19,2.67-2.67,2.67h-13.16c-1.47,0-2.67,1.19-2.67,2.67v28.82c0,1.01.57,1.87,1.39,2.33h-2.78c.82-.45,1.39-1.32,1.39-2.33v-14.93c0-1.47-1.19-2.67-2.67-2.67h-11.56c-1.47,0-2.67-1.19-2.67-2.67v-15.7c0-1.47-1.19-2.67-2.67-2.67h-14.85c-1.47,0-2.67,1.19-2.67,2.67v5.56c0,1.47-1.19,2.67-2.67,2.67h-2.88c-1.47,0-2.67,1.19-2.67,2.67s-1.19,2.67-2.67,2.67h-14.33c-1.47,0-2.67-1.19-2.67-2.67v-15.57c0-1.47-1.19-2.67-2.67-2.67h-7.11c-1.47,0-2.67,1.19-2.67,2.67v6.49c0,1.47-1.19,2.67-2.67,2.67h-13.16c-1.47,0-2.67,1.19-2.67,2.67v28.82c0,1.01.57,1.87,1.39,2.33h-2.78c.82-.45,1.39-1.32,1.39-2.33v-14.93c0-1.47-1.19-2.67-2.67-2.67h-11.56c-1.47,0-2.67-1.19-2.67-2.67v-15.7c0-1.47-1.19-2.67-2.67-2.67h-14.85c-1.47,0-2.67,1.19-2.67,2.67v5.56c0,1.47-1.19,2.67-2.67,2.67h-2.88c-1.47,0-2.67,1.19-2.67,2.67v25.07c0,1.01.57,1.87,1.39,2.33h-9.93c-.33,0-.59.26-.59.59s.26.59.59.59h210.37c.33,0,.59-.26.59-.59s-.26-.59-.59-.59Z"/>
    <g>
      <path class="cls-5" d="M215.52,65.36h44.9c-.06-2.66.27-5.08-2.14-6.78-1.89-1.34-4.5-1.79-5.88.35-1.98-2.72-2.73-6.29-5.82-8.34-3.54-2.35-8.63-1.74-10.95,1.88-.98-.92-1.46-2.4-2.59-3.26-2.14-1.63-5.33-.92-7.37.69-2.8,2.2-2.64,6.5-2.78,9.72-3.59-3.22-8.03.87-7.37,5.74Z"/>
      <path class="cls-5" d="M74.64,83.4h44.9c-.06-2.66.27-5.08-2.14-6.78-1.89-1.34-4.5-1.79-5.88.35-1.98-2.72-2.73-6.29-5.82-8.34-3.54-2.35-8.63-1.74-10.95,1.88-.98-.92-1.46-2.4-2.59-3.26-2.14-1.63-5.33-.92-7.37.69-2.8,2.2-2.64,6.5-2.78,9.72-3.59-3.22-8.03.87-7.37,5.74Z"/>
    </g>
    <g>
      <circle class="cls-11" cx="205.9" cy="39.55" r="2.37"/>
      <circle class="cls-11" cx="110.96" cy="50.86" r="4.87"/>
      <circle class="cls-11" cx="242.2" cy="79.58" r="4.27" transform="translate(14.67 194.57) rotate(-45)"/>
    </g>
    <g>
      <circle class="cls-1" cx="153.38" cy="28.82" r="2.37"/>
      <path class="cls-1" d="M192.56,60.11c0-.99-.81-1.8-1.8-1.8s-1.8.81-1.8,1.8.81,1.8,1.8,1.8,1.8-.81,1.8-1.8Z"/>
      <path class="cls-1" d="M144.82,68.11c0-.99-.81-1.8-1.8-1.8s-1.8.81-1.8,1.8.81,1.8,1.8,1.8,1.8-.81,1.8-1.8Z"/>
    </g>
  </g>
  <g>
    <ellipse class="cls-3" cx="178.79" cy="177.42" rx="71.23" ry="2.49"/>
    <g>
      <polygon class="cls-25" points="188.96 147.4 188.62 148.45 185.07 147.44 188.96 147.4"/>
      <g>
        <path class="cls-16" d="M218.8,116.79l-.1-1.02-7.3-22.72-2.13,3.12c-.27.4-.81.47-1.18.16-.18-.16-.27-.38-.27-.6,0-.16.05-.32.15-.46l.21-.3c-.15.09-.31.13-.49.13-.31,0-.6-.14-.8-.35-.28.17-.59.3-.91.39l5.25,10.72c5.07,10.06,4.16,22.1-2.35,31.29l-3.39,4.78c-.48.67-.89,1.38-1.32,2.09-.08.13-.15.25-.23.38-1.09,1.78-3.03,2.91-5.17,2.93l-3.17.02-5.85.06h-.77l-.34,1.05,11.09,4.43c.74.31,1.27.99,1.35,1.8,0,.07,0,.15,0,.21,0,.11,0,.23-.02.34l.54.1c4.84-.52,9.02-3.58,11-8.03l.96-2.17,2.41-5.43.95-3.15c1.93-6.39,2.58-13.12,1.9-19.76Z"/>
        <path class="cls-19" d="M225.28,120.23c-.52-.13-.98-.45-1.28-.89-3.01-4.35-5.2-9.21-6.47-14.34l-2.9-11.73c-1.14-1.11-1.84-2.65-1.84-4.35,0-1.34.43-2.56,1.16-3.57,0,0-6.13.24-7.99,3.73l.35-.11c.91-.3,1.91-.08,2.61.57l2.32,2.18c.37.35.43.9.15,1.32l7.3,22.72.1,1.02c.68,6.64.03,13.37-1.9,19.76l-.95,3.15-2.41,5.43-.96,2.17c-1.98,4.45-6.16,7.51-11,8.03l-.54-.1c-.12.78-.66,1.45-1.44,1.72l-2.52.86c-2.35.81-4.83,1.16-7.31,1.06-.3-.02-.59-.03-.89-.06l-13.34-1.18c-.79-.07-1.46-.55-1.81-1.22h0s0,0,0,0c-.18-.34-.27-.73-.24-1.13.26-4.39,2.04-8.23,2.04-8.23l.75.72.64-1.39c-1.35-.44-2.64-1.02-3.89-1.73-4.71-2.69-7.18-7.51-7.18-12.39,0-1.71.3-3.43.92-5.05.74-1.96,1.94-3.79,3.6-5.35l8.15-7.61-20.2.44s-2.04.21-4.2.05l-23.38,1.25c-.14,0-.27.02-.4.04-2.01.31-3.53,2.04-3.53,4.11,0,0-4.79,1.34-10.31,5.86-1.1.91-2.24,1.94-3.38,3.12-1.65,1.72-3.31,3.75-4.85,6.13-2.67,4.11-5.01,9.28-6.49,15.74l2.77-4.32c5.89-9.21,14-16.79,23.58-22.07,3.72-2.04,7.84-3.07,11.96-3.07,3.44,0,6.9.72,10.13,2.16,7.13,3.18,11.13,10.11,11.13,17.2,0,4.04-1.31,8.14-4.07,11.63l-3.64,4.6h0l-.11,2.27,36.12,1.75,6.13.3c7.02.34,13.57-3.35,16.95-9.4.29-.51.55-1.04.79-1.58l2.32-3.59c2.51-3.86,4.15-8.15,4.89-12.59,2.6-2.1,5.71-3.62,9.1-4.33h0c.48-.98.69-2,.69-3.01,0-3.05-2.04-5.91-5.24-6.71Z"/>
        <path class="cls-16" d="M161.35,140.89c0,4.04-1.31,8.14-4.07,11.63l-3.64,4.6-.11,2.27-3.78-.19c.03-.44.05-.88.05-1.32,0-10.8-8.75-19.54-19.54-19.54s-19.24,8.44-19.53,18.98l-4-.19c-3.22,0-5.65-2.98-4.93-6.13l2.77-4.32c5.89-9.21,14-16.79,23.58-22.07,3.72-2.04,7.84-3.07,11.96-3.07,3.44,0,6.9.72,10.13,2.16,7.13,3.18,11.13,10.11,11.13,17.2Z"/>
        <path class="cls-10" d="M130.26,138.33c-10.61,0-19.24,8.44-19.53,18.98l6.74.33,6.97.33,11.61.56,6.97.34,6.73.32c.03-.44.05-.88.05-1.32,0-10.8-8.75-19.54-19.54-19.54Z"/>
        <path class="cls-13" d="M135.68,153.76s-.01,0-.02,0l-17.43-.95c-.22-.01-.39-.2-.38-.42.01-.22.21-.4.42-.38l17.43.95c.22.01.39.2.38.42-.01.21-.19.38-.4.38Z"/>
        <path class="cls-13" d="M137.29,152.16s-.01,0-.02,0l-17.43-.95c-.22-.01-.39-.2-.38-.42.01-.22.21-.4.42-.38l17.43.95c.22.01.39.2.38.42-.01.21-.19.38-.4.38Z"/>
        <path class="cls-13" d="M138.89,150.56s-.01,0-.02,0l-17.43-.95c-.22-.01-.39-.2-.38-.42.01-.22.2-.4.42-.38l17.43.95c.22.01.39.2.38.42-.01.21-.19.38-.4.38Z"/>
        <path class="cls-13" d="M140.39,149.06s-.01,0-.02,0l-17.43-.95c-.22-.01-.39-.2-.38-.42.01-.22.2-.4.42-.38l17.43.95c.22.01.39.2.38.42-.01.21-.19.38-.4.38Z"/>
        <path class="cls-12" d="M150.23,123.69c3.09,1.28,5.85,3.42,7.83,6.15,1.03,1.35,1.78,2.88,2.44,4.44.55,1.6,1,3.26,1.11,4.96.29,3.38-.25,6.87-1.77,9.94-.76,1.52-1.74,2.95-2.79,4.25l-3.13,3.91-.28-.57c3.16,0,6.32.08,9.48.12,3.16.05,6.32.13,9.48.23-3.16.1-6.32.18-9.48.23-3.16.04-6.32.12-9.48.12-.19,0-.35-.16-.35-.35,0-.08.03-.16.08-.22l3.09-3.94c1.03-1.31,1.94-2.65,2.66-4.13,1.47-2.92,2.03-6.27,1.78-9.53-.09-1.64-.52-3.23-.99-4.8-.59-1.53-1.27-3.04-2.24-4.38-1.87-2.71-4.44-4.96-7.44-6.43Z"/>
        <path class="cls-16" d="M178.53,114.26l-8.15,7.61c-1.67,1.56-2.86,3.39-3.6,5.35-8.68-2.56-12.64-12.47-12.64-12.47,2.16.16,4.2-.05,4.2-.05l20.2-.44Z"/>
        <path class="cls-10" d="M234.3,129.48c-1.53,0-3.03.16-4.47.46h0c-3.39.72-6.5,2.23-9.1,4.34-.73,4.43-2.38,8.72-4.89,12.59l-2.32,3.59c-.24.54-.5,1.07-.79,1.58.07,1.77.35,3.47.83,5.09l3.36-1.16,7.46-2.57,18.64-6.44,7.46-2.58,3.88-1.34c-3.2-7.94-10.97-13.55-20.05-13.55Z"/>
        <g>
          <g>
            <path class="cls-23" d="M250.48,144.36c3.37,3.51,5.43,8.27,5.43,13.51,0,10.8-8.75,19.54-19.54,19.54s-19.54-8.75-19.54-19.54c0-.64.03-1.29.1-1.92l7.46-2.57c-.52,1.39-.81,2.91-.81,4.49,0,7.07,5.73,12.8,12.8,12.8s12.8-5.73,12.8-12.8c0-4.64-2.46-8.69-6.14-10.93l7.46-2.58Z"/>
            <path class="cls-1" d="M243.02,146.94c3.68,2.24,6.14,6.3,6.14,10.93,0,7.07-5.72,12.8-12.8,12.8s-12.8-5.73-12.8-12.8c0-1.58.29-3.1.81-4.49l18.64-6.44ZM242.2,157.87c0-3.22-2.61-5.83-5.83-5.83s-5.83,2.61-5.83,5.83,2.6,5.83,5.83,5.83,5.83-2.61,5.83-5.83Z"/>
            <circle class="cls-2" cx="236.37" cy="157.87" r="5.83"/>
            <circle class="cls-23" cx="236.37" cy="157.87" r="5.83"/>
          </g>
          <g>
            <path class="cls-23" d="M143.02,158.87l6.73.32c-.68,10.18-9.14,18.22-19.5,18.22s-19.54-8.75-19.54-19.54c0-.19,0-.38.02-.56l6.74.33c0,.08,0,.15,0,.23,0,7.07,5.72,12.8,12.8,12.8s12.26-5.2,12.76-11.8Z"/>
            <path class="cls-1" d="M136.04,158.54l6.97.34c-.51,6.6-6.03,11.8-12.76,11.8-7.07,0-12.8-5.73-12.8-12.8,0-.08,0-.15,0-.23l6.97.33c.05,3.18,2.64,5.73,5.82,5.73,3,0,5.47-2.27,5.79-5.17Z"/>
            <path class="cls-23" d="M124.43,157.97l11.61.56c-.32,2.9-2.79,5.17-5.79,5.17-3.18,0-5.77-2.56-5.82-5.73Z"/>
          </g>
        </g>
        <g>
          <path class="cls-10" d="M223.41,82.85v12.13h-3.01c.44-5.39,0-12.13,0-12.13h3.02Z"/>
          <path class="cls-16" d="M214.63,93.28c-1.14-1.11-1.84-2.65-1.84-4.35,0-1.34.43-2.56,1.16-3.57.19-.26.39-.5.61-.73,1.1-1.1,2.62-1.77,4.29-1.77h1.54s.45,6.74,0,12.13h-1.55c-1.64,0-3.13-.65-4.22-1.71Z"/>
        </g>
        <g>
          <polygon class="cls-2" points="144.89 113.39 144.89 115.23 130.45 116.02 129.83 116.14 121.11 113.39 144.89 113.39"/>
          <g>
            <polygon class="cls-19" points="144.89 103.75 144.89 113.39 121.11 113.39 108.29 113.39 108.29 86.31 144.89 86.31 144.89 103.75"/>
            <rect class="cls-16" x="110.33" y="96.22" width="32.11" height="1.9"/>
            <rect class="cls-16" x="110.33" y="101.83" width="32.11" height="1.9"/>
            <rect class="cls-16" x="110.33" y="107.45" width="32.11" height="1.9"/>
            <path class="cls-16" d="M119.54,87.92h13.18v2.05c0,1.22-.99,2.21-2.21,2.21h-8.77c-1.22,0-2.21-.99-2.21-2.21v-2.05h0Z"/>
            <path class="cls-12" d="M109.65,87.92c2.73-.17,5.46-.24,8.2-.31,2.73-.07,5.46-.08,8.2-.09,2.73,0,5.46.02,8.2.09l4.1.11c1.37.07,2.73.11,4.1.2-1.37.09-2.73.13-4.1.2l-4.1.11c-2.73.07-5.46.08-8.2.09-2.73-.01-5.46-.02-8.2-.09-2.73-.06-5.46-.14-8.2-.31Z"/>
          </g>
        </g>
      </g>
      <g>
        <g>
          <g>
            <polygon class="cls-6" points="199.92 113.97 201.58 135.03 198.16 135.9 192.24 137.4 199.92 113.97"/>
            <path class="cls-6" d="M199.09,103.39l.15,2c-1.47-2.24-3.94-3.83-6.91-3.99l-26.5-1.49,1-1.14c.44-.5,1.06-.8,1.73-.83l22.66-.99.55-.02c3.78-.16,7.01,2.7,7.31,6.47Z"/>
          </g>
          <g>
            <path class="cls-26" d="M198.16,135.9l1.41,6.15-1.34,2.34c-.57,1.01-1.61,1.54-2.66,1.54-.75,0-1.5-.27-2.1-.83l-1.55-1.45-.67-3.25h0s.98-3,.98-3l5.92-1.5Z"/>
            <path class="cls-24" d="M201.05,141.73c-.49-.35-1.19-.21-1.48.32l-1.34,2.34c-.57,1.01-1.61,1.54-2.66,1.54-.75,0-1.5-.27-2.1-.83l-1.55-1.45-.79-.74-1.4,4.48h0s5.85-.05,5.85-.05l3.17-.02c2.14-.02,4.08-1.14,5.17-2.93.08-.13.15-.25.23-.38l-3.1-2.28Z"/>
          </g>
        </g>
        <g>
          <path class="cls-22" d="M180.45,41.31c.04,1.14.31,3.12,1.52,4.69-.74.03-1.56.21-2.16.62-.34.23-.65.54-1.02.72-1.02.51-2.06.05-3.08.15-.37.04-.74.37-.95.7-.04.06-.06.12-.09.19l-.31-.08.85-3.39c.26-1.01,1.07-1.75,2.09-1.98.81-.19,1.88-.64,3.15-1.63Z"/>
          <path class="cls-22" d="M178.26,54.07c-.17-.03-.33-.07-.48-.13-.06-.02-.11-.03-.17-.06,0,0-1.1.23-2.27,1.19-1.1.89-2.28,2.43-2.67,5.04l-3.36-3.36c-1.05-1.04-2.42-1.67-3.88-1.77h0s2.2-2.26,2.2-2.26c1.18-1.21,2.1-2.64,2.7-4.22l.64-1.69c.25.17.56.27.88.27.44,0,.85-.18,1.13-.48l-.43,1.04c-.2.48.02,1.05.51,1.26.12.05.25.07.38.07.4,0,.77-.23.91-.63l.02-.05.31.08c-.11.38.23.63.37,1.06.31.9.41,1.77.94,2.6.21.33.31.62.58.89.49.5,1.05.85,1.69,1.13h0Z"/>
          <circle class="cls-9" cx="179.57" cy="44.31" r=".46"/>
          <path class="cls-15" d="M180.11,42.66c-.2.19-.38.32-.55.45-.17.13-.34.22-.47.36-.18.08-.3.22-.47.33-.17.11-.32.26-.56.42h-.04c.14-.45.41-.86.79-1.13.38-.27.83-.42,1.29-.48v.05Z"/>
          <path class="cls-26" d="M175.71,52.63c.41.42.87.81,1.4,1.05.16.07.33.14.49.2,0,0-1.1.23-2.27,1.19-2.77-1.85-2.06-4.98-2.06-4.98l2.44,2.54Z"/>
          <path class="cls-15" d="M180.47,40.37c-1.8.25-4.1.08-7.04-.82l-10.8,7.26s-.21,5.02,5,5.91c0,0,0,0,0,0,1.28.45,2.65-.69,2.83-1.93.09-.62.11-1.17.35-1.77.2-.49.14-.88.11-1.38-.02-.27.02-.53.03-.79v-.03s0,0,0,0c0-.04,0-.07,0-.11-.04,0-.09,0-.14,0-.34-.29-.56-.72-.56-1.21,0-.88.71-1.59,1.59-1.59s1.59.71,1.59,1.59h0l-.46,1.11-.43,1.04c-.2.48.02,1.05.51,1.26.12.05.25.07.38.07.4,0,.77-.23.91-.63l.02-.05.85-3.39c.26-1.01,1.07-1.75,2.09-1.98.81-.19,1.88-.64,3.15-1.63-.02-.56.02-.93.02-.93h0Z"/>
          <g>
            <path class="cls-8" d="M178.7,36.01h7.83s-1.13,3.71-6.06,4.36c-1.8.25-4.1.08-7.04-.82l5.26-3.54Z"/>
            <path class="cls-18" d="M178.7,36.01l-5.26,3.54-10.8,7.26-.32.22c-3.33-5.1-2.23-8.64-.73-10.7.88-1.22,2.89-2.59,4.26-3.21,9.81-4.46,12.86,2.89,12.86,2.89Z"/>
            <path class="cls-20" d="M166.95,33.64c.78.06,1.54.29,2.26.59.73.31,1.4.74,2,1.25.6.52,1.12,1.14,1.48,1.84.4.68.61,1.46.74,2.22-.29-.72-.57-1.44-1-2.06-.41-.63-.9-1.21-1.48-1.7-1.13-1-2.52-1.69-3.99-2.15Z"/>
          </g>
          <g>
            <path class="cls-13" d="M182.37,46.45c.27.29.37.71,0,.84l-.2.05c-.77.28-1.28,1.01-1.28,1.83v3.46c0,.85-.69,1.55-1.54,1.55-.36,0-.72-.04-1.08-.11h0c-.64-.29-1.2-.64-1.69-1.14-.27-.27-.37-.56-.58-.89-.53-.84-.64-1.7-.94-2.6-.15-.43-.48-.68-.37-1.06.02-.06.05-.12.09-.19.21-.33.58-.66.95-.7,1.02-.1,2.06.35,3.08-.15.37-.18.69-.48,1.02-.72.6-.41,1.42-.59,2.16-.62.12.16.25.3.39.45Z"/>
            <path class="cls-21" d="M175.95,47.86s-.05,0-.07-.03l-2.75-2.62s-.04-.1,0-.14c.04-.04.1-.04.14,0l2.75,2.62s.04.1,0,.14c-.02.02-.05.03-.07.03Z"/>
            <path class="cls-21" d="M175.95,51.4s-.06-.01-.08-.04l-3.93-4.54s-.03-.11.01-.14c.04-.04.11-.03.14.01l3.93,4.54s.03.11-.01.14c-.02.02-.04.02-.07.02Z"/>
            <path class="cls-21" d="M176.72,49.19c.37.06.75.07,1.12.05.37-.02.74-.05,1.11-.14.73-.14,1.43-.42,2.11-.74-.31.22-.63.43-.98.58-.35.17-.72.26-1.09.35-.75.13-1.55.15-2.27-.12Z"/>
            <path class="cls-21" d="M176.54,50.39c.31.25.64.46.99.65.34.19.7.36,1.07.47.73.28,1.51.37,2.3.39-.39.06-.79.1-1.19.05-.4-.03-.79-.13-1.18-.25-.75-.28-1.46-.71-1.98-1.31Z"/>
          </g>
          <path class="cls-26" d="M173.43,45.49l-.46,1.11c-.28.3-.69.48-1.13.48-.32,0-.63-.1-.88-.27-.43-.28-.71-.77-.71-1.32,0-.88.71-1.59,1.59-1.59s1.59.71,1.59,1.59Z"/>
        </g>
        <g>
          <path class="cls-8" d="M174.54,75.82l-8.7,2.11,4.71,10.8s-.24,5.92-1.98,9.19c-.67.03-1.29.33-1.73.83l-1,1.14c-.56-.03-1.1.18-1.48.57l-7.87,8.13c-.68.7-1.47,1.28-2.34,1.73l-4.85,2.43-.95-.35c-.69-.25-1.27-.68-1.72-1.23-.44-.55-.74-1.21-.84-1.93-.26-1.83-.39-3.68-.39-5.51,0-2.38.21-4.76.64-7.1l4.13-22.39c.52-2.83,1.38-5.57,2.55-8.18,1.18-2.6,2.66-5.06,4.43-7.33.94-1.2,2.14-2.14,3.47-2.8,1.33-.64,2.81-1,4.35-1,.15,0,.3,0,.45.02,1.46.1,2.83.73,3.88,1.77l3.36,3.36c.44.44.5,1.14.14,1.65l-.81,1.14,2.55,12.92Z"/>
          <path class="cls-7" d="M158.11,64.63c.3,1.18.59,2.36.86,3.54.26,1.19.55,2.37.77,3.56l.72,3.57.66,3.58-.32-.21c1.27-.29,2.55-.53,3.83-.78,1.28-.26,2.56-.48,3.85-.69-1.25.37-2.5.73-3.77,1.05-1.26.33-2.52.66-3.79.95l-.27.06-.05-.27-.72-3.57-.65-3.58c-.23-1.19-.4-2.4-.6-3.59-.19-1.2-.36-2.4-.52-3.61Z"/>
          <path class="cls-7" d="M153.14,100.86c.89-.44,1.76-.9,2.59-1.42.85-.5,1.67-1.04,2.47-1.61,1.59-1.14,3.11-2.39,4.45-3.8,1.4-1.37,2.53-2.98,3.52-4.65l.69-1.29c.21-.44.37-.91.55-1.36l.28-.68.2-.71c.13-.47.27-.95.41-1.42-.28,1.95-.78,3.91-1.73,5.68-.93,1.77-2.1,3.42-3.49,4.85-1.41,1.41-2.95,2.69-4.63,3.77-1.68,1.07-3.45,2-5.32,2.64Z"/>
          <path class="cls-7" d="M149.52,104.61c1.32-.14,2.62-.33,3.91-.58,1.29-.25,2.56-.54,3.82-.91,1.26-.34,2.5-.76,3.72-1.24,1.23-.45,2.41-1.04,3.61-1.6-1.07.77-2.21,1.47-3.43,2.02-1.2.58-2.46,1.03-3.74,1.39-1.28.36-2.59.63-3.91.78-1.32.16-2.65.23-3.98.12Z"/>
          <path class="cls-7" d="M166.16,56.83c.71.17,1.38.49,1.99.89.62.4,1.19.87,1.69,1.41.49.55.95,1.12,1.3,1.77.2.31.33.65.49.98.14.34.25.68.36,1.03-.36-.63-.71-1.25-1.12-1.84l-.3-.44-.33-.42c-.21-.28-.46-.54-.69-.8-.48-.52-1.01-.99-1.57-1.42-.57-.43-1.16-.83-1.81-1.15Z"/>
          <path class="cls-7" d="M151.07,70.5c.07,1.05.18,2.09.3,3.12.13,1.04.27,2.07.45,3.1.17,1.03.37,2.05.59,3.07.21,1.02.48,2.03.73,3.06-.2-.49-.39-.98-.57-1.47-.16-.5-.33-1-.47-1.51-.3-1.01-.51-2.04-.69-3.08-.17-1.04-.3-2.09-.36-3.14-.03-.53-.05-1.05-.06-1.58.01-.53.01-1.05.07-1.58Z"/>
        </g>
        <g>
          <path class="cls-17" d="M199.25,105.39c-1.47-2.24-3.94-3.83-6.91-3.99l-26.5-1.49c-.56-.03-1.1.18-1.48.57l-7.87,8.13c-.68.7-1.47,1.28-2.34,1.73l-4.85,2.43c.59,1.34,2.77,1.83,4.85,1.98,2.16.16,4.2-.05,4.2-.05l20.2-.44,7.52-.16-9.34,30.98.72.2,7.62,2.16h.02s3.89-.03,3.89-.03l2.3-7h0s.98-3,.98-3l7.68-23.43.32-.99c.89-2.7.4-5.45-1-7.6Z"/>
          <g>
            <path class="cls-4" d="M201.05,154.68c0,.07,0,.15,0,.21,0,.11,0,.23-.02.34-.12.78-.66,1.45-1.44,1.72l-2.52.86c-2.35.81-4.83,1.16-7.31,1.06-.3-.02-.59-.03-.89-.06l-13.34-1.18c-.79-.07-1.46-.55-1.81-1.22-.18-.34-.27-.73-.24-1.13.26-4.39,2.04-8.23,2.04-8.23l.75.72.48.47c1.51,1.44,3.77,1.73,5.59.72l2.68-1.51h.02l3.56,1.01,11.09,4.43c.74.31,1.27.99,1.35,1.8Z"/>
            <path class="cls-22" d="M177.43,145.27l-.51,1.1-.64,1.39.48.47c1.51,1.44,3.77,1.73,5.59.72l2.68-1.51h0s-7.62-2.17-7.62-2.17Z"/>
            <path class="cls-24" d="M200.3,155.34c-.5.24-1.05.37-1.57.54l-1.6.46-3.22.85c-1.09.28-2.22.38-3.35.33-1.12-.08-2.21-.2-3.32-.3-2.2-.23-4.41-.45-6.61-.7l-3.3-.38c-.28-.04-.55-.06-.83-.11-.28-.05-.55-.15-.8-.27-.25-.13-.49-.28-.7-.47-.21-.19-.38-.41-.56-.62.38.41.79.78,1.3.99.25.11.51.18.78.22.26.04.55.04.82.07l3.31.27c2.21.18,4.41.4,6.62.6,1.1.11,2.21.24,3.3.33,1.09.07,2.18-.03,3.25-.26l3.24-.74,1.62-.37.81-.2c.27-.07.54-.12.79-.24Z"/>
          </g>
        </g>
        <g>
          <g>
            <path class="cls-22" d="M211.24,91.73c.37.35.43.9.15,1.32l-2.13,3.12c-.27.4-.81.47-1.18.16-.18-.16-.27-.38-.27-.6,0-.16.05-.32.15-.46l.21-.3c.3-.15.52-.44.56-.78l.35-.5c.15-.21.06-.51-.19-.59l-.63-.2c-.39-.13-.81-.09-1.17.1l-3.99,2.13c-.15.08-.31.14-.48.17-.37.09-.77.05-1.12-.1l-2.27-.99-6.89.48c-.4.03-.81.05-1.22.06-2.37.08-4.74-.07-7.07-.48l-8.29-1.44c-2.32-.4-4.29-1.94-5.23-4.1l-4.71-10.8,8.7-2.11,1.16,4.13c.52,1.85,1.81,3.39,3.55,4.22l5.39,2.6c2.19,1.06,4.52,1.83,6.9,2.3l7.22,1.4c1.27.24,2.6.16,3.83-.25l3.39-1.13.35-.11c.91-.3,1.91-.08,2.61.57l2.32,2.18Z"/>
            <path class="cls-26" d="M208.9,93.1c.25.08.35.38.19.59l-.35.5c0-.06.02-.11.02-.17,0-.6-.48-1.07-1.07-1.07s-1.08.48-1.08,1.07c0,.28.1.53.28.73-.28.17-.59.3-.91.39-1.57.47-3.34.18-3.34.18h0c.16-.04.32-.1.48-.18l3.99-2.13c.36-.19.78-.23,1.17-.1l.63.2Z"/>
          </g>
          <path class="cls-2" d="M207.68,92.95c-.6,0-1.08.48-1.08,1.07,0,.28.1.53.28.73.19.22.48.35.8.35.18,0,.35-.04.49-.13.3-.15.52-.44.56-.78,0-.06.02-.11.02-.17,0-.6-.48-1.07-1.07-1.07Z"/>
          <path class="cls-7" d="M175.78,92.84c-1.42-.1-2.81-.73-3.89-1.71-.54-.5-.99-1.08-1.35-1.73-.36-.66-.59-1.3-.88-1.95-.56-1.3-1.1-2.6-1.61-3.91-.52-1.31-1.03-2.63-1.49-3.96.66,1.25,1.28,2.52,1.89,3.79.61,1.27,1.2,2.55,1.77,3.85.29.63.56,1.32.86,1.91.32.59.71,1.16,1.19,1.64.93,1,2.17,1.7,3.53,2.08Z"/>
        </g>
      </g>
      <g>
        <rect class="cls-18" x="111.36" y="71.95" width="26.85" height="14.36"/>
        <rect class="cls-20" x="123.18" y="71.95" width="3.2" height="7.63"/>
        <rect class="cls-14" x="130.57" y="74.14" width="6.15" height="2.54"/>
      </g>
    </g>
  </g>
  <g>
    <path class="cls-23" d="M154.14,46.27h-29.36c-.15,0-.27-.12-.27-.27s.12-.27.27-.27h29.36c.15,0,.27.12.27.27s-.12.27-.27.27Z"/>
    <path class="cls-23" d="M157.18,49.67h-17.37c-.15,0-.27-.12-.27-.27s.12-.27.27-.27h17.37c.15,0,.27.12.27.27s-.12.27-.27.27Z"/>
    <path class="cls-23" d="M115.83,107.68h-22.92c-.15,0-.27-.12-.27-.27s.12-.27.27-.27h22.92c.15,0,.27.12.27.27s-.12.27-.27.27Z"/>
    <path class="cls-23" d="M100.76,103.45h-17.37c-.15,0-.27-.12-.27-.27s.12-.27.27-.27h17.37c.15,0,.27.12.27.27s-.12.27-.27.27Z"/>
    <path class="cls-23" d="M209.17,79.09h-11.2c-.15,0-.27-.12-.27-.27s.12-.27.27-.27h11.2c.15,0,.27.12.27.27s-.12.27-.27.27Z"/>
    <path class="cls-23" d="M206.09,75.13h-19.43c-.15,0-.27-.12-.27-.27s.12-.27.27-.27h19.43c.15,0,.27.12.27.27s-.12.27-.27.27Z"/>
    <path class="cls-23" d="M149.52,55.22h-23.47c-.15,0-.27-.12-.27-.27s.12-.27.27-.27h23.47c.15,0,.27.12.27.27s-.12.27-.27.27Z"/>
    <path class="cls-23" d="M103.82,111.99h-23.47c-.15,0-.27-.12-.27-.27s.12-.27.27-.27h23.47c.15,0,.27.12.27.27s-.12.27-.27.27Z"/>
  </g>
</svg>